<?xml version="1.0" encoding="UTF-8" standalone="no"?>
<!-- Generator: Adobe Illustrator 24.2.1, SVG Export Plug-In . SVG Version: 6.00 Build 0)  -->

<svg
   version="1.1"
   id="Layer_1"
   x="0px"
   y="0px"
   viewBox="0 0 122.88 122.88"
   style="enable-background:new 0 0 122.88 122.88;"
   xml:space="preserve"
   sodipodi:docname="plane-icon.svg"
   inkscape:version="1.3 (0e150ed6c4, 2023-07-21)"
   xmlns:inkscape="http://www.inkscape.org/namespaces/inkscape"
   xmlns:sodipodi="http://sodipodi.sourceforge.net/DTD/sodipodi-0.dtd"
   xmlns="http://www.w3.org/2000/svg"
   xmlns:svg="http://www.w3.org/2000/svg"><defs
   id="defs1" /><sodipodi:namedview
   id="namedview1"
   pagecolor="#505050"
   bordercolor="#eeeeee"
   borderopacity="1"
   inkscape:showpageshadow="0"
   inkscape:pageopacity="0"
   inkscape:pagecheckerboard="0"
   inkscape:deskcolor="#505050"
   inkscape:zoom="4.6783677"
   inkscape:cx="51.727443"
   inkscape:cy="56.750562"
   inkscape:window-width="2560"
   inkscape:window-height="1009"
   inkscape:window-x="-8"
   inkscape:window-y="-8"
   inkscape:window-maximized="1"
   inkscape:current-layer="Layer_1" />&#10;<style
   type="text/css"
   id="style1">&#10;	.st0{fill-rule:evenodd;clip-rule:evenodd;}&#10;</style>&#10;<g
   id="g1"
   transform="matrix(0.5579083,-0.55556927,0.55556927,0.5579083,-7.3282429,69.446204)"
   inkscape:transform-center-x="7.6013036"
   inkscape:transform-center-y="-16.408027"
   style="fill:#4e3965;fill-opacity:1;stroke:#000000;stroke-width:3.9398;stroke-linejoin:round;stroke-dasharray:none;stroke-opacity:1">&#10;	<path
   class="st0"
   d="m 16.63,105.75 c 0.01,-4.03 2.3,-7.97 6.03,-12.38 L 1.09,79.73 c -1.36,-0.59 -1.33,-1.42 -0.54,-2.4 l 4.57,-3.9 C 5.95,72.92 6.83,72.7 7.78,72.96 L 34.4,77.46 56.58,53.44 4.8,18.41 C 3.49,17.64 3.38,16.77 4.73,15.76 L 12.2,9.8 79.7,28.77 99.64,7.45 c 6.69,-5.79 13.19,-8.38 18.18,-7.15 2.75,0.68 3.72,1.5 4.57,4.08 1.65,5.06 -0.91,11.86 -6.96,18.86 l -21.32,19.94 18.97,67.5 -5.96,7.47 c -1.01,1.34 -1.88,1.23 -2.65,-0.07 L 69.43,66.31 45.41,88.48 l 4.5,26.62 c 0.26,0.94 0.05,1.82 -0.47,2.66 l -3.9,4.57 c -0.97,0.79 -1.81,0.82 -2.4,-0.54 L 29.5,100.22 c -4.43,3.74 -8.37,6.03 -12.42,6.03 -0.37,-0.01 -0.45,-0.14 -0.45,-0.5 z"
   id="path1"
   style="fill:#4e3965;fill-opacity:1;stroke:#000000;stroke-width:3.9398;stroke-linejoin:round;stroke-dasharray:none;stroke-opacity:1" />&#10;</g>&#10;</svg>
